<svg id="visual" viewBox="0 0 900 600" width="900" height="600" xmlns="http://www.w3.org/2000/svg" xmlns:xlink="http://www.w3.org/1999/xlink" version="1.1"><path d="M0 85L37.5 94C75 103 150 121 225 128C300 135 375 131 450 126C525 121 600 115 675 104C750 93 825 77 862.5 69L900 61L900 0L862.5 0C825 0 750 0 675 0C600 0 525 0 450 0C375 0 300 0 225 0C150 0 75 0 37.5 0L0 0Z" fill="#ffd770"></path><path d="M0 277L37.5 272C75 267 150 257 225 248C300 239 375 231 450 246C525 261 600 299 675 305C750 311 825 285 862.5 272L900 259L900 59L862.5 67C825 75 750 91 675 102C600 113 525 119 450 124C375 129 300 133 225 126C150 119 75 101 37.5 92L0 83Z" fill="#eeb71d"></path><path d="M0 337L37.5 335C75 333 150 329 225 325C300 321 375 317 450 330C525 343 600 373 675 380C750 387 825 371 862.5 363L900 355L900 257L862.5 270C825 283 750 309 675 303C600 297 525 259 450 244C375 229 300 237 225 246C150 255 75 265 37.5 270L0 275Z" fill="#be9114"></path><path d="M0 409L37.5 404C75 399 150 389 225 390C300 391 375 403 450 422C525 441 600 467 675 474C750 481 825 469 862.5 463L900 457L900 353L862.5 361C825 369 750 385 675 378C600 371 525 341 450 328C375 315 300 319 225 323C150 327 75 331 37.5 333L0 335Z" fill="#eeb71d"></path><path d="M0 601L37.5 601C75 601 150 601 225 601C300 601 375 601 450 601C525 601 600 601 675 601C750 601 825 601 862.5 601L900 601L900 455L862.5 461C825 467 750 479 675 472C600 465 525 439 450 420C375 401 300 389 225 388C150 387 75 397 37.5 402L0 407Z" fill="#ffd770"></path></svg>